<?xml version="1.0" encoding="iso-8859-1"?>
<!-- Generator: Adobe Illustrator 17.1.0, SVG Export Plug-In . SVG Version: 6.00 Build 0)  -->
<!DOCTYPE svg PUBLIC "-//W3C//DTD SVG 1.1//EN" "http://www.w3.org/Graphics/SVG/1.1/DTD/svg11.dtd">
<svg xmlns="http://www.w3.org/2000/svg" xmlns:xlink="http://www.w3.org/1999/xlink" version="1.1" id="Capa_1" x="0px" y="0px" viewBox="0 0 355.984 355.984" style="enable-background:new 0 0 355.984 355.984;" xml:space="preserve" width="512px" height="512px">
<g>
	<path d="M277.736,0H78.248c-11.028,0-20,8.972-20,20v315.984c0,11.028,8.972,20,20,20h199.488c11.028,0,20.001-8.972,20.001-20V20   C297.737,8.972,288.764,0,277.736,0z M161.826,18.281h32.333c2.762,0,5,2.238,5,5c0,2.762-2.238,5-5,5h-32.333   c-2.762,0-5-2.238-5-5C156.826,20.52,159.064,18.281,161.826,18.281z M177.992,337.615c-8.837,0-16-7.163-16-16   c0-8.836,7.163-16,16-16c8.836,0,16,7.164,16,16C193.992,330.451,186.829,337.615,177.992,337.615z M282.736,279.281   c0,5.5-4.5,10-10,10H83.248c-5.5,0-10-4.5-10-10v-223c0-5.5,4.5-10,10-10h189.489c5.5,0,10,4.5,10,10V279.281z" fill="#FFFFFF"/>
	<path d="M200.625,106.647c-3.571-1.475-7.666,0.229-9.139,3.805c-1.474,3.574,0.23,7.666,3.805,9.139   c14.343,5.911,24.798,15.812,30.236,28.631c5.498,12.958,5.295,27.501-0.587,42.055c-1.448,3.584,0.283,7.664,3.867,9.113   c0.859,0.347,1.747,0.512,2.621,0.512c2.768,0,5.391-1.654,6.492-4.379c7.199-17.814,7.375-36.554,0.495-52.769   C231.608,126.708,218.187,113.885,200.625,106.647z" fill="#FFFFFF"/>
	<path d="M190.933,130.139c-3.572-1.473-7.666,0.23-9.139,3.805c-1.474,3.574,0.23,7.666,3.805,9.139   c8.14,3.355,14.059,8.938,17.115,16.143c3.091,7.286,2.96,15.505-0.379,23.766c-1.448,3.585,0.283,7.665,3.867,9.113   c0.859,0.348,1.747,0.512,2.621,0.512c2.769,0,5.391-1.654,6.492-4.379c4.691-11.61,4.794-23.854,0.287-34.479   C211.142,143.245,202.381,134.856,190.933,130.139z" fill="#FFFFFF"/>
	<path d="M187.168,199.215c-1.875-4.896-6.73-8.186-12.08-8.186c-1.621,0-3.217,0.294-4.742,0.874l-6.695,2.543   c-3.098-4.193-6.679-9.42-9.578-17.05c-2.881-7.586-3.706-14.052-4.167-19.112l6.702-2.544c6.762-2.577,10.217-10.048,7.703-16.652   l-7.709-20.288c-1.858-4.91-6.713-8.209-12.081-8.209c-1.523,0-3.025,0.26-4.469,0.771c-2.043,0.559-10.764,3.447-18.109,13.647   c-10.438,14.49-9.911,32.999,1.819,63.886c15.404,40.516,39.64,48.577,40.665,48.901c3.737,1.179,7.099,1.752,10.275,1.752   c0.001,0,0.001,0,0.001,0c5.915,0,9.986-2.067,12.959-3.577c6.529-3.317,9.565-10.232,7.216-16.451L187.168,199.215z" fill="#FFFFFF"/>
</g>
<g>
</g>
<g>
</g>
<g>
</g>
<g>
</g>
<g>
</g>
<g>
</g>
<g>
</g>
<g>
</g>
<g>
</g>
<g>
</g>
<g>
</g>
<g>
</g>
<g>
</g>
<g>
</g>
<g>
</g>
</svg>
